<svg xmlns="http://www.w3.org/2000/svg" width="3560" height="2666.667"><path d="M3560 2666.667H0V0h3560v2666.667" fill="none"/><path d="M539.985 2588.133c-242.11-263.626-573.006-535.826-443.254-947 85.344-270.453 294.597-345.84 468.533-512.613 85.841-82.293 31.85-202.093 30.257-320.987-3.638-304.493 336.17-540.773 648.576-535.84 338.383 5.347 484.863 345.547 768.716 363.787 111.467 1.707 211.28-63.707 309.894-115.667 292.213-153.973 755.88-55.786 779.306 316.56 6.054 201.094-222.813 524.6 6.494 630.36 182.746 84.294 367.373 115.334 400.306 416.814 43.107 394.6-184.786 611.173-481.746 712.72l-2487.082-8.134" fill="none"/><path d="M698.319 1087.533h336.906c41.703 0 75.51 33.814 75.51 75.507v157.053c0 41.707-33.807 75.52-75.51 75.52h-2.5l27.04 90.587c1.191 3.973-3.412 7.16-6.718 4.64l-124.83-95.227H698.32c-41.703 0-75.51-33.813-75.51-75.52V1163.04c0-41.693 33.807-75.507 75.51-75.507" fill="#fff"/><path d="M1035.068 1219.413H711.609c-20.642 0-37.376-16.733-37.376-37.373 0-20.64 16.734-37.373 37.376-37.373h323.459c20.643 0 37.376 16.733 37.376 37.373 0 20.64-16.733 37.373-37.376 37.373M1035.068 1333.56H711.609c-20.642 0-37.376-16.733-37.376-37.373 0-20.654 16.734-37.374 37.376-37.374h323.459c20.643 0 37.376 16.72 37.376 37.374 0 20.64-16.733 37.373-37.376 37.373" fill="none"/><path d="M2760.133 663.6H2392.72c-45.493 0-82.36 36.867-82.36 82.347v171.28c0 45.466 36.867 82.346 82.36 82.346h2.72l-29.493 98.787c-1.294 4.347 3.72 7.813 7.333 5.067l136.133-103.854h250.72c45.48 0 82.347-36.88 82.347-82.346v-171.28c0-45.48-36.867-82.347-82.347-82.347" fill="#fff"/><path d="M2757.027 808.36h-369.934c-18.346 0-33.226-14.88-33.226-33.227v-8.306c0-18.347 14.88-33.214 33.226-33.214h369.934c18.346 0 33.226 14.867 33.226 33.214v8.306c0 18.347-14.88 33.227-33.226 33.227M2576.453 921.373h-173.24c-20.64 0-37.373-16.733-37.373-37.373 0-20.64 16.733-37.373 37.373-37.373h173.24c20.64 0 37.374 16.733 37.374 37.373 0 20.64-16.734 37.373-37.374 37.373" fill="none"/><path d="M350.625 2139.08c-18.88 0-31.569-14.24-31.569-31.56 0-14.867 12.69-29.093 31.57-29.093 16.402 0 29.091 14.226 29.091 29.093 0 17.013-12.07 31.56-29.092 31.56zm-42.401-206.427c13.927-10.52 30.64-15.786 50.139-15.786 42.09 0 64.374 22.906 64.374 55.093 0 18.56-8.974 37.44-27.236 56.32-23.212 24.453-39.924 36.52-50.446 36.52-10.215 0-17.642-8.04-17.642-17.64 0-8.667 8.047-17.32 21.974-30.013.929-.934 1.857-1.867 2.476-2.174 15.784-14.546 20.736-22.586 20.736-32.493 0-12.387-8.356-19.187-20.427-19.187-5.57 0-12.07 1.24-19.808 3.707-7.736 2.48-13.308 3.72-16.712 3.72-8.667 0-18.57-7.427-18.57-19.813 0-6.494 3.714-12.68 11.142-18.254M2864.573 1373.92c-12.413 0-20.76-9.373-20.76-20.773 0-9.76 8.347-19.12 20.76-19.12 10.787 0 19.134 9.36 19.134 19.12 0 11.2-7.934 20.773-19.134 20.773zm-27.88-135.76c9.147-6.92 20.147-10.387 32.974-10.387 27.68 0 42.333 15.067 42.333 36.227 0 12.213-5.907 24.627-17.92 37.053-15.253 16.08-26.253 24.014-33.173 24.014-6.72 0-11.6-5.294-11.6-11.6 0-5.707 5.293-11.4 14.453-19.747.613-.613 1.213-1.227 1.627-1.427 10.386-9.56 13.64-14.853 13.64-21.373 0-8.133-5.494-12.613-13.44-12.613-3.654 0-7.934.813-13.027 2.44-5.08 1.626-8.747 2.44-10.987 2.44-5.706 0-12.213-4.88-12.213-13.027 0-4.267 2.44-8.347 7.333-12M3445.48 1990.36h-386.427c-6.826 0-12.373-5.533-12.373-12.373V1645.36c0-6.84 5.547-12.373 12.373-12.373 6.84 0 12.374 5.533 12.374 12.373v320.253h374.053c6.84 0 12.373 5.547 12.373 12.374 0 6.84-5.533 12.373-12.373 12.373" fill="#fff"/><path d="M3088.307 1909.053c-3.094 0-6.2-1.16-8.6-3.48-4.907-4.746-5.04-12.573-.294-17.493l124.894-129.187c4.12-4.266 10.666-5 15.626-1.786l59.067 38.306 62.28-72.36c4.453-5.173 12.267-5.76 17.44-1.306 5.173 4.453 5.76 12.266 1.307 17.44l-69.32 80.56c-4.04 4.68-10.92 5.666-16.107 2.306l-59.587-38.653-117.813 121.88a12.34 12.34 0 01-8.893 3.773" fill="#fff"/><path d="M3360.293 1776.093l-17.613-35.706-37.933-12.107 84.44-41.933-28.894 89.746M849.347 655.013c-29.907 0-54.239 24.32-54.239 54.227 0 29.907 24.332 54.24 54.239 54.24 29.906 0 54.238-24.333 54.238-54.24 0-29.907-24.332-54.227-54.238-54.227zm0 129.094c-41.276 0-74.856-33.587-74.856-74.867 0-41.267 33.58-74.853 74.856-74.853 41.276 0 74.856 33.586 74.856 74.853 0 41.28-33.58 74.867-74.856 74.867" fill="#fff"/><path d="M3133.08 1285.333c-21.907 0-39.733 17.827-39.733 39.734 0 21.906 17.826 39.72 39.733 39.72 21.907 0 39.72-17.814 39.72-39.72 0-21.907-17.813-39.734-39.72-39.734zm0 94.56c-30.24 0-54.827-24.6-54.827-54.826 0-30.24 24.587-54.827 54.827-54.827 30.227 0 54.827 24.587 54.827 54.827 0 30.226-24.6 54.826-54.827 54.826" fill="none"/><path d="M254.63 1595.56c-19.669 0-35.67 16-35.67 35.667 0 19.68 16.001 35.68 35.67 35.68 19.67 0 35.673-16 35.673-35.68 0-19.667-16.003-35.667-35.672-35.667zm0 84.907c-27.145 0-49.23-22.094-49.23-49.24 0-27.147 22.085-49.227 49.23-49.227 27.147 0 49.231 22.08 49.231 49.227 0 27.146-22.084 49.24-49.23 49.24M2893.68 565.76c0 14.787-11.987 26.787-26.773 26.787-14.8 0-26.787-12-26.787-26.787 0-14.8 11.987-26.787 26.787-26.787 14.786 0 26.773 11.987 26.773 26.787" fill="#fff"/><path d="M546.017 1061.653c0 29.094-23.578 52.667-52.664 52.667-29.085 0-52.664-23.573-52.664-52.667 0-29.08 23.579-52.666 52.664-52.666 29.086 0 52.664 23.586 52.664 52.666M3053.733 461.907c0 21.866-17.733 39.6-39.6 39.6-21.866 0-39.586-17.734-39.586-39.6 0-21.867 17.72-39.587 39.586-39.587 21.867 0 39.6 17.72 39.6 39.587M3247.48 1412.587c0 18.666-15.133 33.8-33.8 33.8-18.667 0-33.787-15.134-33.787-33.8 0-18.667 15.12-33.787 33.787-33.787s33.8 15.12 33.8 33.787" fill="none"/><path d="M2954.947 666.64c0 23.267-18.867 42.133-42.134 42.133-23.266 0-42.133-18.866-42.133-42.133 0-23.267 18.867-42.133 42.133-42.133 23.267 0 42.134 18.866 42.134 42.133M1017.165 590.12c0 23.6-19.134 42.733-42.737 42.733-23.604 0-42.737-19.133-42.737-42.733 0-23.6 19.133-42.733 42.737-42.733 23.603 0 42.737 19.133 42.737 42.733" fill="#fff"/><path d="M3038.253 2611.213H508.564c-8.253 0-14.943-6.693-14.943-14.946 0-8.254 6.69-14.947 14.943-14.947h2529.69c8.253 0 14.946 6.693 14.946 14.947 0 8.253-6.693 14.946-14.947 14.946" fill="#201d40"/><path d="M1345.36 1302.6h.053l38.827.147 8.787 91.706-45.32 23.934-48.34-23.667 7.812-91.973 38.181-.147" fill="#f37a50"/><path d="M1238.684 1262.12c23.899 59.72 81.293 92.92 128.196 74.147 46.907-18.774 65.547-82.4 41.653-142.107-23.893-59.72-81.294-92.92-128.197-74.147-46.901 18.774-65.55 82.4-41.652 142.107" fill="#f37a50"/><path d="M1388.133 1213.747c2.774 3.986 8.254 4.973 12.227 2.2a8.778 8.778 0 002.2-12.227 8.778 8.778 0 00-12.227-2.2c-3.986 2.773-4.973 8.253-2.2 12.227M1322.333 1240.613c2.999 4.307 8.926 5.374 13.24 2.374 4.307-3 5.374-8.92 2.374-13.24-3-4.307-8.926-5.374-13.238-2.374-4.312 3-5.376 8.92-2.376 13.24"/><path d="M1374.8 1227.773c11.867 9.36 26.72 20.667 26.72 20.667s.16 14.307-16.573 20.52c6.053-5.493 11.36-12.8 5.066-21.24-6.306-8.427-15.213-19.947-15.213-19.947" fill="#de623c"/><path d="M1305.019 1234.893a4.386 4.386 0 01-4.268-5.4c1.534-6.44 7.969-18.613 21.337-18.68 2.44.027 4.393 1.947 4.405 4.374a4.386 4.386 0 01-4.362 4.4c-9.9.04-12.824 11.813-12.852 11.933a4.39 4.39 0 01-4.26 3.373M1378.933 1195.173a3.55 3.55 0 01-1.84-.506c-1.746-1.014-2.32-3.254-1.306-5 .16-.267 4-6.694 11.253-8.04 4.96-.92 10.08.706 15.227 4.826 1.573 1.254 1.826 3.56.573 5.134a3.661 3.661 0 01-5.133.573c-3.414-2.733-6.56-3.867-9.334-3.347-3.946.734-6.266 4.507-6.28 4.547a3.667 3.667 0 01-3.16 1.813" fill="#201d40"/><path d="M1206.05 1217.52c-20.214-57.547 29.023-90.627 29.023-90.627s-13.21-1.186-14.788-19.733c9.888 3.08 20.972 2.867 30.714-.667 65.629-23.76 110.814-23.44 110.814 4.64 0 10 43.347 3.147 39.707 70.387.267-4.747-15.227-32.387-29.867-35.147-14.68-2.773-1.413 16.8-32 21-30.862 4.24-53.554-3.253-72.405 14.147-14.75 15.173-18.408 92.427-16.164 97.067-5.143-10.654-36.152-35.774-45.035-61.067" fill="#201d40"/><path d="M1417.573 1227.773s2.787 35.04-2.266 45.88c-5.254-14.053-16.547.84-27.147 2.24-25.627 3.387-71.852-5.16-76.433 33.28-31.312 9.907-60.643-57.12-60.643-57.12-1.8 74.88 52.996 117.4 131.85 104.947 51.96-8.213 56.773-80.547 34.64-129.227" fill="#201d40"/><path d="M1363.56 1299.573c-5.067-1.213-10.347-3.28-15.813-6.2a2.925 2.925 0 01-1.2-3.96 2.913 2.913 0 013.946-1.2c12.134 6.48 23.014 8.334 32.32 5.48 11.52-3.506 16.787-13.213 16.84-13.306a2.927 2.927 0 013.947-1.227 2.923 2.923 0 011.227 3.933c-.254.494-6.334 11.894-20.2 16.16-6.494 2.014-13.547 2.107-21.067.32" fill="#de623c"/><path d="M1250.343 1252.547c13.188 7.413 18.964 22.16 12.902 32.946-6.061 10.8-21.666 13.547-34.854 6.134-13.187-7.4-18.963-22.16-12.902-32.947 6.062-10.8 21.667-13.533 34.854-6.133" fill="#f37a50"/><path d="M1248.337 1284.88a3.352 3.352 0 001.008-1.133c3.626-6.72 3.032-13.56-1.588-18.307-4.73-4.853-12.366-6.253-18.157-3.32a3.305 3.305 0 00-1.457 4.44 3.308 3.308 0 004.445 1.453c3.172-1.6 7.753-.706 10.43 2.04 2.571 2.64 2.753 6.387.509 10.547a3.307 3.307 0 004.81 4.28" fill="#de623c"/><path d="M1390.293 2527.36c8.267-22.44 25.92-24.933 25.92-24.933 34.334 47.373 118.654 18.293 115.854 82.373-128.214-.826-181.494 0-181.494 0 .16-14.72 2.707-49.64 5.654-63.32l6.693 1.227 27.373 4.653M1198.46 2528.6c8.263-22.44 25.925-24.933 25.925-24.933 34.334 47.373 118.642 18.306 115.855 82.373-128.215-.827-181.501 0-181.501 0 .169-14.72 2.704-49.64 5.661-63.32l6.681 1.227 27.379 4.653"/><path d="M1475.573 1779.24s20.814 303.613 12.36 371.107c-8.466 67.493-38.4 154.04-35.013 377.293-41.8 10.466-102.347 0-102.347 0s-8.986-252.44 35.2-365.2c-17.96-109.533-75.616-360.4-75.616-360.4l165.416-22.8" fill="#201d40"/><path d="M1396.453 1787.533s-42.026 340.854-62.6 405.507c-20.581 64.653-60.709 119.32-97.96 339.253-42.953 2.147-82.952 0-82.952 0s5.798-278.986 72.695-342.426c2.264-111.067-10.817-400.134-10.817-400.134l181.634-2.2" fill="#2c2858"/><path d="M1202.685 1400.693s73.006-25.546 97.35-13.826c75.645 36.413 92.992 0 92.992 0 24.173 2.08 97.146 13.826 97.146 13.826 0 81.494 5.44 163.267 3.96 224.934-1.053 53.693 9.187 199.84 9.187 199.84s-80.493 21.093-156.627 21.653c-76.148-.507-153.645-20.8-153.645-20.8s4.068-148.013 7.45-203.027c-1.1-61.666 2.187-141.32 2.187-222.6" fill="#e62552"/><path d="M1619.947 1521.813c-30.134-71.893-119.56-117.626-129.774-121.12L1469.427 1493c42.96 25.4 74.146 52.88 74.146 52.88-5.293 25.707-4.413 50.907-19.28 83.413 0 0 12.92-17.826 28.854-7.28 15.493 10.254 44-10.68 44-10.68s45.813-34.613 22.8-89.52" fill="#c4204a"/><path d="M1603.147 1703.507a8.2 8.2 0 001.573.306h1.707c3.146-.333 5.946-2.48 6.933-5.68l80.333-259c.174-.52.267-1.053.32-1.573.04-.347.027-.68.014-1.013 0-.214.026-.414 0-.627-.014-.173-.067-.347-.107-.533-.48-2.934-2.533-5.507-5.587-6.467-.493-.147-1-.267-1.52-.32a7.651 7.651 0 00-1.746 0H1482.84l-81.04 275.213h201.493l-.146-.306" fill="#95a6db"/><path d="M1484.68 1428.92c-4.307-1.333-8.88 1.067-10.213 5.373l-79.827 258.347-.187.613a8.153 8.153 0 005.334 10.174l.013.026c4.307 1.334 8.88-1.066 10.213-5.373l80.04-258.947c1.334-4.306-1.066-8.88-5.373-10.213" fill="#768fdb"/><path d="M1637.467 1593.24c.746-.507 1.573-.827 2.413-1.053a3.776 3.776 0 00-.267-.374c-5.026-7.586-4.693-16.666.747-20.28.893-.586 1.88-.973 2.907-1.213-1.414-5.613-.147-10.987 3.746-13.56 1.547-1.013 3.334-1.48 5.214-1.453-1.774-5.52-.36-11.32 3.986-14.2 5.454-3.614 13.347-1.28 17.64 5.2 4.294 6.48 3.36 14.653-2.08 18.253-1.386.92-2.92 1.44-4.52 1.627 3.627 7.066 2.894 14.8-2.026 18.053-.894.6-1.867.987-2.907 1.227 1.427 5.613.147 10.973-3.733 13.546-1.44.96-3.08 1.414-4.827 1.467 1.8 4.827.667 10.027-3.16 12.573-4.6 3.04-11.267 1.08-14.893-4.4-3.627-5.466-2.84-12.373 1.76-15.413M1388.84 1576.867l18.44-10.68s5.093-26.147 34.707-26.774c-3.4 10.96-8.28 26.774-8.28 26.774s14.573 11.306 49.133-8.054c33.773-7.586 19.347 17.04 30.547 18.814 16.52 2.613-12.04 35.08-45.774 40.04-43.653 6.426-48.826-2.507-48.826-2.507l-24.694 8.627-5.253-46.24" fill="#f37a50"/><path d="M1218.252 1604.8c61.616-4.307 166.721-34.733 166.721-34.733 16.827 25.8 12.174 60.066 12.174 60.066-95.687 83.894-239.698 111.014-283.883 90.814-40.34-18.427-11.863-264 89.421-320.254 34.723 58.76 15.567 204.107 15.567 204.107" fill="#8a284c"/><path d="M2211.307 2504.587c-34.334 45.787-118.64 17.693-115.854 79.626 128.214-.8 181.494 0 181.494 0-.16-14.227-2.694-47.986-5.654-61.213l-59.986-18.413M2403.133 2505.773c-34.32 45.8-118.64 17.707-115.853 79.64 128.227-.8 181.507 0 181.507 0-.174-14.227-2.707-47.986-5.667-61.213l-59.987-18.427"/><path d="M2151.947 1805.44s-20.814 293.52-12.347 358.773c8.453 65.254 38.4 148.907 35 364.747 41.8 10.12 102.347 0 102.347 0s8.986-244.053-35.2-353.067c17.973-105.88 75.626-348.4 75.626-348.4l-165.426-22.053" fill="#201d40"/><path d="M2231.067 1813.467s42.04 329.52 62.613 392.013c20.573 62.507 60.707 115.347 97.947 327.973 42.96 2.08 94.146-8.493 94.146-8.493s-16.986-261.213-83.88-322.547c-2.266-107.373 10.814-386.826 10.814-386.826l-181.64-2.12" fill="#2c2858"/><path d="M2402.267 1274.373c-22.787 56.934-77.507 88.574-122.227 70.68-44.707-17.893-62.493-78.546-39.707-135.48 22.787-56.933 77.507-88.586 122.214-70.693 44.72 17.893 62.493 78.56 39.72 135.493" fill="#f37a50"/><path d="M2259.773 1228.253c-2.64 3.8-7.853 4.734-11.653 2.094-3.8-2.64-4.733-7.867-2.093-11.654 2.64-3.8 7.853-4.733 11.653-2.093 3.8 2.64 4.733 7.853 2.093 11.653M2322.507 1253.867c-2.854 4.106-8.507 5.12-12.614 2.253-4.106-2.853-5.12-8.507-2.266-12.613 2.853-4.107 8.506-5.12 12.626-2.267 4.107 2.853 5.12 8.507 2.254 12.627"/><path d="M2272.493 1241.627c-11.32 8.92-25.48 19.693-25.48 19.693s-.146 13.653 15.814 19.573c-5.774-5.24-10.84-12.213-4.84-20.253 6.013-8.04 14.506-19.013 14.506-19.013" fill="#de623c"/><path d="M2339.013 1248.413c-1.88 0-3.6-1.293-4.053-3.213-.12-.453-2.92-11.347-12.253-11.387a4.182 4.182 0 01-4.16-4.2c.013-2.306 1.906-4.173 4.2-4.16 12.746.067 18.88 11.667 20.346 17.8.534 2.24-.853 4.507-3.093 5.04-.333.08-.653.12-.987.12M2268.547 1210.533c-1.187 0-2.347-.6-3-1.693-.054-.107-2.307-3.707-6.04-4.373-2.64-.467-5.614.613-8.854 3.2a3.479 3.479 0 01-4.893-.547 3.477 3.477 0 01.547-4.893c4.906-3.934 9.786-5.48 14.506-4.6 6.92 1.28 10.587 7.4 10.734 7.666a3.481 3.481 0 01-1.24 4.76c-.56.334-1.16.48-1.76.48"/><path d="M2386.36 1280.307c-16.467-52.974 4.36-81.12 4.36-81.12-14.147-2.827-19.64 2.066-19.64 2.066-7.72-15.84-1.733-27.2-1.733-27.2-29.24-11.4-43.8 7.534-70.187 13.92-36.12 8.734-80.747-5.68-84.92-49.773-.6-6.387 6.413-10.52 11.747-6.947 4.946 3.307 11.506 5.974 19.68 5.747 0 0-7.574-8.533-7.96-20.347-.214-6.506 7.426-10.026 12.426-5.853 7.507 6.24 21.454 12.147 46.294 7.493 16.533-3.093 54.373-29.573 77.96-24.4 19.266 4.227 34.56 20.627 41.146 44.107 0 0 47.374 4.907 52.134 57.053 4.666 51.227-54.68 90.534-54.68 90.534l-26.627-5.28"/><path d="M2379.907 1271.48c-12.547 7.107-18 21.187-12.187 31.467 5.827 10.253 20.707 12.813 33.253 5.706 12.547-7.106 18-21.186 12.187-31.466-5.827-10.267-20.707-12.827-33.253-5.707" fill="#f37a50"/><path d="M2381.933 1302.293c-.386-.28-.72-.64-.96-1.08-3.48-6.386-2.946-12.906 1.44-17.453 4.494-4.653 11.774-6.013 17.307-3.24a3.165 3.165 0 011.4 4.24c-.773 1.547-2.68 2.187-4.227 1.4-3.04-1.52-7.4-.653-9.946 1.987-2.44 2.52-2.6 6.093-.44 10.04.826 1.533.266 3.453-1.267 4.28-1.08.6-2.36.48-3.307-.174" fill="#de623c"/><path d="M2249.613 1299.093c-1.24-2.013.507-4.506 2.814-4.026 5.853 1.24 15.546 3.08 24.88 3.906 9.346.84 19.213.747 25.186.574 2.36-.08 3.627 2.693 2.067 4.453-4.813 5.4-14.467 13.4-28.773 12.12-14.32-1.28-22.4-10.853-26.174-17.027" fill="#fff"/><path d="M2189.427 1373.68s2.146-5.8-182.374-4.307l-49.466 58.467c51.2 41.053 222.666 48.347 222.666 48.347l9.174-102.507" fill="#201d40"/><path d="M2256.48 1368.933l58.187-5.44 56.306 15.707-63.44 65.28-51.053-75.547" fill="#95a6db"/><path d="M2276.653 1398.893c23.72 19.467 28.56 32.92 78.947 6.894l7.547-77.454-82.014-6.466-4.48 77.026" fill="#f37a50"/><path d="M2385.92 1410.373l-17.253-6.826 2.306-24.347-47.84 38.413-13.506 2.147-12.907-4.52-40.24-46.307-2.067 24.374-15.213 3.053-54.88 8.88-6.533 304.6-21.654 103.627c72.827 24.226 154.254 30.266 234.307 19.226l-2.693-104.026 56.866-297.68-58.693-20.614" fill="#95a6db"/><path d="M2299.107 1450.533l-34.374 232.56 19.027 26.454 24.827-19.067 8.44-238.013-17.92-1.934" fill="#2c2858"/><path d="M2297.053 1423.08l12.574-3.32 12.8 5.587-5.414 27.573-18.026-1.613-1.934-28.227M2255.68 1370.88l-8.627 280.92-37.186 180.893s-58.8-5.92-94.934-40.306l46.307-136.174 15.827-284.586 78.613-.747" fill="#2c2858"/><path d="M2255.68 1370.88l-8.573 277.16-42.8-212.413z" fill="#494c7f"/><path d="M2375.373 1388.84l-76.36 455.44s101.334 12.453 143-14.947l-22.613-149.72 27.64-254.173-71.667-36.6" fill="#2c2858"/><path d="M2375.373 1388.84l-44.626 266.947 79.906-201.4z" fill="#494c7f"/><path d="M1870.8 1121.013c4.053 14.2 5.267 29.534 23.293 37.187 0 0-2.666 47.16-.666 85.84 0 0 43.613-49.187 43.6-49.227-2.494-15.586-4.52-45.066-2.12-61.813.626-4.347 1.48-8.667 2.16-13.027 1.88-10.573 4.986-21.4-1.454-34.16-24.893-49.306-16.52-65.533-19.946-67.933-5.574-2.467-18.667 7.467-11.267 31.693 7.173 23.44 5.4 34.947 5.4 34.947s-18.813-3.547-25.48 3.027c-3.04 3-18.267 16.84-13.52 33.466" fill="#f37a50"/><path d="M1880.92 1187.48c25.413-8.48 38.8-12.293 58.573-12.293 46.734 139.266 80.04 191.746 66.147 231.733-11.587 33.333-48.24 30.667-66.147 5.68-23.653-32.947-44.573-158.12-58.573-225.12M2447.04 1425.44l147.227 230.347 174.866 98.733-53.893 53.667-175.44-76.907-120.4-169.88 27.64-135.96" fill="#201d40"/><path d="M2309.627 1419.76s-21.654 21.867-41.574 27.467l-23.546-62.267 11.973-16.027 53.147 50.827" fill="#fff"/><path d="M2309.627 1419.76s12.346 21.213 36.026 34.427l34.267-56.907-8.947-18.08-61.346 40.56" fill="#fff"/><path d="M2469.88 2075.52H1184.313c-30.214 0-54.708-16.48-54.708-36.813 0-20.334 24.494-36.814 54.708-36.814H2469.88c30.213 0 54.72 16.48 54.72 36.814 0 20.333-24.507 36.813-54.72 36.813" fill="#95a6db"/><path d="M1666.133 2594.28c-13.773 0-22.053-15.294-14.533-26.827l339.44-520.173 29.053 18.96-339.426 520.174a17.35 17.35 0 01-14.534 7.866" fill="#95a6db"/><path d="M1988.067 2594.28c13.773 0 22.053-15.294 14.52-26.827L1663.16 2047.28l-29.067 18.96 339.44 520.174a17.35 17.35 0 0014.534 7.866" fill="#95a6db"/><path d="M2521.053 2586.04c-9.173 0-16.613-7.44-16.613-16.613v-294.44h33.24v294.44c0 9.173-7.44 16.613-16.627 16.613M2637.667 2586.04c-9.174 0-16.614-7.44-16.614-16.613v-294.44h33.227v294.44c0 9.173-7.44 16.613-16.613 16.613M2790.68 2586.04c-9.173 0-16.627-7.44-16.627-16.613v-294.44h33.24v294.44c0 9.173-7.44 16.613-16.613 16.613M2907.28 2586.04c-9.173 0-16.613-7.44-16.613-16.613v-294.44h33.24v294.44c0 9.173-7.44 16.613-16.627 16.613" fill="#768fdb"/><path d="M2723.413 1838.013V2188.4a7.21 7.21 0 01-7.213 7.213h-217.24c-21.92 0-39.693 17.774-39.693 39.694s17.773 39.68 39.693 39.68h264.147c21.92 0 39.68-17.76 39.68-39.68V1838.013c0-21.906-17.76-39.68-39.68-39.68-21.92 0-39.694 17.774-39.694 39.68" fill="#95a6db"/><path d="M2934.867 2202.053h-171.76v-403.72h171.76v403.72" fill="#95a6db"/><path d="M2895.173 1838.013V2188.4a7.21 7.21 0 01-7.213 7.213h-217.24c-21.92 0-39.693 17.774-39.693 39.694s17.773 39.68 39.693 39.68h264.147c21.906 0 39.68-17.76 39.68-39.68V1838.013c0-21.906-17.774-39.68-39.68-39.68-21.92 0-39.694 17.774-39.694 39.68M1116.868 2586.04c9.179 0 16.619-7.44 16.619-16.613v-294.44h-33.236v294.44c0 9.173 7.44 16.613 16.617 16.613M1000.26 2586.04c9.179 0 16.617-7.44 16.617-16.613v-294.44h-33.236v294.44c0 9.173 7.442 16.613 16.619 16.613M847.25 2586.04c9.178 0 16.62-7.44 16.62-16.613v-294.44h-33.237v294.44c0 9.173 7.44 16.613 16.618 16.613M730.643 2586.04c9.177 0 16.617-7.44 16.617-16.613v-294.44h-33.235v294.44c0 9.173 7.44 16.613 16.618 16.613" fill="#768fdb"/><path d="M914.512 1838.013V2188.4a7.214 7.214 0 007.219 7.213h217.241c21.919 0 39.687 17.774 39.687 39.694s-17.768 39.68-39.687 39.68H874.825c-21.917 0-39.685-17.76-39.685-39.68V1838.013c0-21.906 17.768-39.68 39.685-39.68h.002c21.917 0 39.685 17.774 39.685 39.68" fill="#95a6db"/><path d="M703.067 2202.053h171.76v-403.72h-171.76v403.72" fill="#95a6db"/><path d="M742.752 1838.013V2188.4a7.215 7.215 0 007.22 7.213h217.241c21.919 0 39.686 17.774 39.686 39.694s-17.767 39.68-39.686 39.68H703.067c-21.918 0-39.686-17.76-39.686-39.68V1838.013c0-21.906 17.768-39.68 39.686-39.68s39.685 17.774 39.685 39.68" fill="#768fdb"/><path d="M2635.013 1704.12c-36.653-13.227-93.266-42.133-55.64-94.96 37.627-52.84 36.667-29.773 23.12-93.947-13.546-64.173 32.08-114.653 75.587-101.88 43.493 12.774 54.6 47.974 107.92 39.067 53.32-8.907 97.627 40.96 77.56 84.213-20.067 43.24-28.64 64.054-9.88 88 18.773 23.934 103.333 49.72 68.067 107.067-35.267 57.347-51.44 53.827-39.187 83.213 12.253 29.4-16 62.867-65.027 58.294-49.026-4.56-93.4-23.107-111.373-77.84-17.987-54.734-71.147-91.227-71.147-91.227" fill="#2c2858"/><path d="M2505.347 2537.667l-28.96 8.653-21.814-22.307c1.04-1.546.04-16.48-3.333-32.4l54.107-8.973c2.16 16.48 0 38.373 0 55.027" fill="#f37a50"/><path d="M2476.6 2541.106c-6.893-18.08-21.613-20.093-21.613-20.093-28.614 38.16-98.88 14.747-96.547 66.36 106.853-.653 151.253 0 151.253 0-.133-11.853-2.253-39.987-4.72-51l-5.56.987-22.813 3.746" fill="#e62552"/><path d="M2312.72 2543.053l-30.16 2.053-17.347-18.466c1.36-1.28 4.64-24.147 4.854-40.413l50.826 2.253c-1.52 16.56-4.52 38.32-8.173 54.573" fill="#f37a50"/><path d="M2285.84 2541.106c-6.893-18.08-21.613-20.093-21.613-20.093-28.614 38.16-98.88 14.747-96.547 66.36 106.853-.653 151.253 0 151.253 0-.133-11.853-2.253-39.987-4.72-51l-5.56.987-22.813 3.746" fill="#e62552"/><path d="M2617.68 2038.787c-82.32 11.08-314.227 97.026-327.16 112.573-26.693 32.12-12.627 206.867-25.307 351.067l67.414 3.973c32.293-117.427 29.72-168.107 44.32-302.8 0 0 264.946 19.84 360.68-44.787 98.72-66.626-53.374-135.813-119.947-120.026" fill="#1174ad"/><path d="M2510.4 1867.587c19.453 3.32 26.947 18.933 31.64 47.68-74.12 43.666-184.227 46.773-184.227 46.773l-35.093-17.36s88.293-31.8 187.68-77.093" fill="#de623c"/><path d="M2713.067 1785.427c-32.44 47.133-156.694 148.493-177.267 151.68l-24.92-69.734s121.32-131.32 143.413-154.52c38.147-40.28 111.88-4.28 58.774 72.574" fill="#de623c"/><path d="M2576.413 1777.88c26.014-28.027 59.894-91.28 103.974-86.787 44.08 4.494 47.266 51.28 33.986 76.467-13.293 25.187-59.173 87.267-59.173 87.267l-78.787-76.947" fill="#ff4f78"/><path d="M2584.4 1896.453c18.693 6.44 29.36 65.294 24.107 69.8-80.107 31.72-246.774-2.586-246.774-2.586l-8.853-30.187s126.2-7.733 231.52-37.027" fill="#f37a50"/><path d="M2847.973 2088.267c-18.32-94.507-26.213-128-33.826-172.48-18.8-109.934 36.493-187.187-58.307-239.867l-69.093 11.133c-55.854 58.774-90.254 112.12-93.2 148.974-4.054 47.533 43.12 73.333 43.12 73.333l-18.987 129.427s-4.453 10.56 73.453 25.28c77.894 14.72 156.84 24.2 156.84 24.2" fill="#e62552"/><path d="M2791.187 1798.827c-32.44 47.68-171.04 168.853-191.867 169.933l-14.92-72.307s125.92-147.56 148-171.04c38.16-40.733 111.88-4.32 58.787 73.414" fill="#f37a50"/><path d="M2658.68 1799.16c24.2-35.213 73.027-100.187 117.107-95.693 44.08 4.493 47.266 51.28 33.986 76.466-13.293 25.187-59.173 87.267-59.173 87.267l-91.92-68.04" fill="#ff4f78"/><path d="M2352.88 1933.48c-25.48-6.267-80.88-24.88-103.187 33.467 5.587 10.72 26.107-15.72 34.92-18.174 13.987-3.893 25.987 3.454 36.56 13.574 15.187 14.506 40.56 1.32 40.56 1.32l-8.853-30.187" fill="#f37a50"/><path d="M2333.053 2001.28H2093.68v-32.147h271.52c0 17.747-14.387 32.147-32.147 32.147" fill="#ff4f78"/><path d="M1970.6 1799.36l123.08 201.92 28.453-14.96-138.04-230.373c-15.72 8.266-21.76 27.693-13.493 43.413" fill="#ff4f78"/><path d="M2787.467 1585.867c-11.64 48.613-52.027 80.613-90.214 71.48-38.173-9.147-59.693-55.974-48.053-104.587 11.64-48.613 52.027-80.6 90.213-71.467 38.174 9.147 59.694 55.96 48.054 104.574" fill="#f37a50"/><path d="M2768.973 1611.48l-63.453 39.333s-5.627 28.04-8.44 37.134c-5.8 18.773 16.413 26.986 35.2 15.293 18.787-11.693 23.56-27.32 23.56-27.32l13.133-64.44" fill="#f37a50"/><path d="M2644.827 1534.2c18.04 1.547 57.093-1.573 71.346-18.467 10.16 34.294 53.334 66.947 89.04 82.254 1.427-35.187 1.174-99.934-61.92-126.827-49.56-21.133-98.466 63.04-98.466 63.04" fill="#2c2858"/><path d="M2667.093 1565.533c-1.68 3.374-5.786 4.747-9.16 3.067-3.373-1.68-4.746-5.773-3.066-9.16 1.68-3.373 5.786-4.747 9.16-3.067 3.373 1.68 4.746 5.787 3.066 9.16M2720.72 1578.76c-1.827 3.653-6.253 5.147-9.907 3.32a7.379 7.379 0 01-3.32-9.907c1.814-3.653 6.254-5.133 9.907-3.32a7.394 7.394 0 013.32 9.907"/><path d="M2728.893 1572.64a2.558 2.558 0 01-1.186-1.213c-3.707-7.987-13.707-9.547-13.814-9.56a2.583 2.583 0 01-2.173-2.92 2.557 2.557 0 012.893-2.174c.534.067 12.867 1.934 17.76 12.494a2.59 2.59 0 01-1.253 3.413 2.554 2.554 0 01-2.227-.04M2652.2 1555.64a2.583 2.583 0 01-.667-4.133c7.854-7.747 17.507-4.534 17.92-4.387a2.565 2.565 0 011.587 3.267 2.555 2.555 0 01-3.253 1.586c-.32-.093-7.12-2.253-12.64 3.2-.8.787-1.987.947-2.947.467" fill="#2c2858"/><path d="M2671.48 1580.387c-3.747 3.853-7.027 7.826-10.613 10.08-1.2.76-1.587 2.36-.88 3.6 2.88 5.12 11.32 9.346 16.493 11.546.76.32 1.373-.666.76-1.213-5.227-4.587-7.467-7.947-8.413-9.8a3.22 3.22 0 01.013-2.92c1.067-2.12 3.2-6.44 4.64-10 .507-1.24-1.067-2.253-2-1.293" fill="#de623c"/><path d="M2769.093 1586.187c-9.28 7.213-12.013 19.213-6.106 26.813 5.906 7.587 18.213 7.893 27.493.68 9.28-7.227 12.013-19.227 6.107-26.827-5.907-7.586-18.214-7.893-27.494-.666" fill="#f37a50"/><path d="M2774.373 1610.8a2.589 2.589 0 01-.906-.76c-3.56-4.747-3.894-10.067-.894-14.253 3.067-4.28 8.774-6.227 13.56-4.654a2.579 2.579 0 011.64 3.254 2.56 2.56 0 01-3.253 1.626c-2.613-.866-6.04.36-7.773 2.774-1.667 2.333-1.374 5.226.826 8.16a2.572 2.572 0 01-.506 3.6c-.8.6-1.854.666-2.694.253" fill="#de623c"/><path d="M2709.8 2053.8c-82.32 11.08-314.587 86.36-327.52 101.907-26.693 32.12 32.747 169.653 51.76 346.72h79.467c-.84-126.16 9.24-242.227-29.574-283.347 0 0 222.614-14.867 333.6-14.867 56.574 0 87.88-191.16-107.733-150.413" fill="#1174ad"/><path d="M2668.013 1621.293c-1.106-1.48.094-3.56 1.92-3.333 4.654.56 12.36 1.32 19.707 1.333 7.347 0 15.053-.746 19.707-1.293 1.84-.213 3.026 1.853 1.92 3.333-3.387 4.56-10.374 11.467-21.64 11.454-11.267-.014-18.24-6.934-21.614-11.494" fill="#fff"/><path d="M1087.161 1917.853c-15.72 10.467-11.368 67.48-5.432 70.374 81.744 9.986 219.815-57.734 219.815-57.734l5.407-30.293s-115.315 19.307-219.79 17.653" fill="#f37a50"/><path d="M907.548 1819.013c29.223 46.72 157.133 167.56 176.984 169.36l16.905-68.506S986.62 1774.293 966.39 1751.053c-34.934-40.306-106.696-8.253-58.841 67.96" fill="#f37a50"/><path d="M977.453 1569.307c3.515-47.854-10.318-90.12-48.469-111.654-38.668-21.813-87.11-.413-87.11-.413-.003 0-41.002-14.587-78.16 26.347-37.16 40.933-9.051 76.946-24.254 106.8-9.003 17.68-54.777 21.333-42.953 78.906 3.41 16.614 23.384 27.787 40.301 28.894 29.723 1.96 57.401-9.534 69.45 1.96 39.703 37.866 127.689 24.173 140.002-10.467 3.819-10.733 82.964 10.04 75.068-63.107-4-37.066-47.015-14.52-43.875-57.266" fill="#2c2858"/><path d="M904.928 1723.973l-62.837-11.6-23.563 31.347 50.077 102.667 73.656-62.507-37.333-59.907" fill="#f37a50"/><path d="M986.381 1971.52c-1.074-19.533 30.496-99.76 13.879-140.133-12.104-32.48-32.323-87.014-57.084-96.107-11.683-4.293-23.69-7.28-38.248-11.307 0 0 8.213 40.934-8.899 42.307-32.94 2.64-53.938-53.907-53.938-53.907-17.759-1.693-99.226 25.067-99.187 31.76.193 52.387 42.763 128.84 56.683 185.494 5.477 61.173-15.868 134.386-15.946 141.346 0 0 131.052 36.854 208.738-5.92 1.624-5.96-4.515-66.56-5.998-93.533" fill="#1174ad"/><path d="M803.356 2008.12s-28.932 72.987-35.987 118.933c-7.054 45.947 32.762 75.427 32.762 75.427h331.116s35.448-57.48 25.237-97.187c-10.21-39.693-33.695-46-33.695-46l-319.433-51.173" fill="#1174ad"/><path d="M1135.681 2057.253c-42.274-5.96-164.965 41.694-217.28 145.227h146.358l70.922-145.227" fill="#de623c"/><path d="M1089.321 2095.36c5.464-5.973 10.424-13.347 14.79-21.04 12.337-21.733 42.077-25.413 58.869-6.893 61.024 67.28 191.113 220.653 220.113 239.746 8.2 5.387 56.014 32.92 101.467 27.48 0 0 22.44 8.534 7.493 26.36-7.693 9.16-123.213 18.64-123.213 18.64l-9-33.92c-67.239-49.76-150.944-46.186-221.919-137.16-39.082-50.106-48.6-113.213-48.6-113.213" fill="#de623c"/><path d="M1392.24 2399.227l46.48 30.16 6.387-7.614-37.694-35.16c21.414-16.893 71.027-2.8 71.027-2.8 16.24-10.493 47.92-44.533 51.187-62.773-10.414-12.96-45.054 13.707-45.054 13.707 1.267 5.773-9.68 25.786-18.386 29.2-37.854 8.173-75.574-2.587-106.347-18.214 0 0-25.72 38.974 32.4 53.494" fill="#e62552"/><path d="M1088.644 2104.507c-8.465 2.28-14.78 9.36-16.004 18.04-3.31 23.493-20.408 71.04 2.721 120.84 56.787 122.266 90.314 202.826 96.27 234.373-14.832 27.787 44.313 103.667 45.194 108.64l42.57-13.333s-24.427-36.334-33.222-50.56c-20.942-33.88-24.368-75.454-27.772-107.68-14.532-137.587 10.455-224.454-89.096-305.16-5.886-4.774-13.341-7.134-20.661-5.16" fill="#f37a50"/><path d="M1150.424 2535.96l4.196 55.253 9.93.467 5.097-51.306c26.422 6.786 45.292 54.786 45.292 54.786 18.197 6.547 64.472 11.093 80.954 2.64 4.002-16.147-38.216-27.52-38.216-27.52-3.821 4.52-26.37 7.947-34.369 3.094-29.444-25.147-45.443-61.654-51.677-95.614 0 0-44.91 3.187-21.207 58.2" fill="#e62552"/><path d="M889.05 1672.653l-51.023-7.64 4.064 47.36s9.766 21.454 21.094 22.907l41.743-11.307-15.879-51.32" fill="#f37a50"/><path d="M790.817 1604.173c13.172 55.014 58.876 91.214 102.082 80.88 43.205-10.346 67.552-63.333 54.38-118.346-13.171-55-58.875-91.214-102.08-80.867-43.206 10.347-67.554 63.32-54.382 118.333" fill="#f37a50"/><path d="M927.032 1581.16a7.714 7.714 0 0010.36 3.467c3.82-1.894 5.373-6.534 3.47-10.347-1.9-3.827-6.54-5.387-10.36-3.48-3.818 1.907-5.373 6.547-3.47 10.36M866.347 1596.133c2.06 4.134 7.081 5.814 11.216 3.76 4.133-2.066 5.816-7.08 3.757-11.213a8.348 8.348 0 00-11.215-3.76c-4.136 2.053-5.817 7.08-3.758 11.213"/><path d="M857.1 1589.2a2.85 2.85 0 001.34-1.373c4.19-9.04 15.516-10.8 15.63-10.827a2.908 2.908 0 00-.82-5.76c-.593.093-14.55 2.187-20.087 14.147a2.902 2.902 0 001.416 3.853 2.882 2.882 0 002.521-.04M943.883 1569.96c.28-.133.54-.32.772-.56a2.9 2.9 0 00-.024-4.107c-8.874-8.773-19.808-5.133-20.27-4.973a2.904 2.904 0 00-1.801 3.693 2.915 2.915 0 003.685 1.814c.359-.12 8.056-2.56 14.296 3.6a2.904 2.904 0 003.342.533" fill="#2c2858"/><path d="M922.063 1597.96c4.24 4.36 7.958 8.853 12.005 11.413 1.364.854 1.801 2.667 1.01 4.08-3.271 5.787-12.817 10.56-18.67 13.054-.853.36-1.555-.76-.857-1.374 5.908-5.173 8.446-8.986 9.512-11.08a3.673 3.673 0 00-.012-3.32c-1.211-2.386-3.623-7.266-5.255-11.306-.564-1.4 1.219-2.547 2.267-1.467" fill="#de623c"/><path d="M811.608 1604.52c10.499 8.173 13.59 21.76 6.907 30.347-6.684 8.6-20.615 8.946-31.112.773-10.499-8.173-13.591-21.76-6.907-30.347 6.684-8.586 20.613-8.933 31.112-.773" fill="#f37a50"/><path d="M805.632 1632.373c.392-.186.744-.48 1.025-.853 4.032-5.36 4.411-11.387 1.014-16.12-3.478-4.84-9.935-7.053-15.354-5.267a2.904 2.904 0 00-1.849 3.667 2.902 2.902 0 003.673 1.853c2.97-.973 6.836.4 8.804 3.134 1.891 2.64 1.558 5.92-.937 9.24a2.901 2.901 0 00.577 4.066 2.88 2.88 0 003.047.28" fill="#de623c"/><path d="M874.301 1641.827c-1.217-1.64.099-3.934 2.128-3.694 5.16.614 13.691 1.454 21.834 1.454 8.144 0 16.674-.84 21.834-1.454 2.03-.24 3.346 2.054 2.127 3.694-3.743 5.053-11.479 12.706-23.961 12.706s-20.218-7.653-23.962-12.706" fill="#fff"/><path d="M789.75 1599.307c51.571-6.907 123.729-59.44 129.647-86.414-9.976-32.386-63.122-48.666-93.132-33.653-30.01 15-58.358 79.307-36.514 120.067" fill="#2c2858"/><path d="M1272.193 1989.28c-6.864-2.24-10.612-9.613-8.37-16.48l79.604-243.853c2.24-6.867 9.613-10.614 16.48-8.374 6.866 2.254 10.613 9.627 8.373 16.494l-79.601 243.853c-2.24 6.853-9.622 10.6-16.486 8.36" fill="#fff"/><path d="M1314.473 1901.893l16.22-49.68s14.054 28.574 0 55.707c-14.058 27.133-27.438 28.347-27.438 28.347l11.218-34.374M1291.31 1888.6c-4.103-9.653-13.758-33.773-4.103-33.667 9.656.107 11.23 11.827 11.23 11.827l-7.128 21.84M493.881 1743.387c21.892-22.08 7.531-44.734 7.531-44.734 12.013-2.573 75.39 93.427 102.716 154.44 47.667-48.04 131.659-112.92 154.37-116.706 0 0 30.64-8.24 41.649 28.813 9.826 33.053-28.498 56.493-28.498 56.493s-163.942 115.734-188.188 105.454c-37.73-16.014-71.876-153.774-89.58-183.76" fill="#f37a50"/><path d="M459.652 1740.653c13.377.827 29.921-5.8 35.075 6.2l26.404-12.866 1.597-15.934c-22.688-36.346-77.99-46.666-83.465-47.146-14.226-1.24-20.83-2.707-21.942-.814-1.11 1.907-4.596 14.574 16.046 17.054 25.904 3.106 8.706 23.813-43.844 4.106-13.159-4.946-37.922 1.467-28.966 11.08 9.87 10.6 38.224 34.614 99.095 38.32" fill="#f37a50"/><path d="M1890.027 1000.4c0 12.053-2.054 23.72-5.934 34.813-19.386 55.64-84.093 96.52-160.96 96.52-76.84 0-141.56-40.88-160.933-96.52-3.88-11.093-5.947-22.76-5.947-34.813h333.774" fill="#1174ad"/><path d="M1890.027 1000.4c0 12.053-2.054 23.72-5.934 34.813H1562.2c-3.88-11.093-5.947-22.76-5.947-34.813h333.774" fill="#1174ad"/><path d="M2072.627 437.4c0-192.853-156.2-349.213-348.987-349.48-190.133-.267-346.52 152.96-349.933 343.067-1.48 83.16 26.08 159.813 73.213 220.52 59.627 76.813 92.733 170.906 92.733 268.146v1.72h366.974v-1.706c0-97.387 33.346-191.48 92.986-268.48 45.774-59.08 73.014-133.254 73.014-213.787" fill="#ff7542"/><path d="M1726.973 440.387c-10.106 17.16-18.506 36.453-24.413 56.466-10.307 34.92-11.707 68.387-3.747 89.507 5.734 15.253 15.494 23.187 29.827 24.267 14.8 1.106 24.107-4.96 29.307-19.094 11.84-32.186-2.534-97.933-30.974-151.146zm49.04 441.44c-.973 0-1.96-.16-2.933-.507a8.937 8.937 0 01-5.507-11.373c.414-1.187 41.627-119.92 71.574-240.827 53.08-214.32 25.76-249.147 11.56-254.173-41.774-14.8-75.04 7.08-95.587 28.04-6.027 6.16-11.813 13.106-17.267 20.68 8.92 15.44 16.96 32.48 23.707 50.493 18.507 49.44 23.427 95.627 13.16 123.533-7.92 21.534-24.76 32.454-47.413 30.747-21.374-1.613-37.014-13.987-45.214-35.787-9.413-25-8.2-61.76 3.334-100.866 7.28-24.68 18.173-48.44 31.373-68.907-12.32-19.493-26.6-36.267-42.08-47.56-23-16.76-44.6-17.493-64.2-2.173-40.467 31.64-42.027 126.8-4.48 275.173 28.947 114.4 71.413 220.173 71.84 221.227 1.84 4.573-.373 9.773-4.947 11.626-4.573 1.84-9.773-.373-11.626-4.946-.427-1.067-43.294-107.8-72.547-223.36-40.013-158.08-36.4-256.934 10.76-293.8 25.893-20.24 56.347-19.6 85.72 1.813 14.733 10.733 29.28 26.827 42.48 46.507 4.68-6.08 9.587-11.747 14.64-16.907 34.2-34.88 74.787-46.373 114.307-32.387 24.6 8.72 34.693 41.827 30.853 101.24-2.827 43.814-13.28 102.427-31.053 174.174-30.147 121.706-71.6 241.12-72.014 242.32-1.28 3.68-4.746 6-8.44 6" fill="#fff"/><path d="M1875.68 1011.827H1570.6c-36.36 0-65.84-29.48-65.84-65.84v-2.774c0-36.36 29.48-65.853 65.84-65.853h305.08c36.36 0 65.853 29.493 65.853 65.853v2.774c0 36.36-29.493 65.84-65.853 65.84" fill="#1174ad"/><path d="M2316.867 451.773H2202.6c-16.267 0-29.453-13.186-29.453-29.453s13.186-29.453 29.453-29.453h114.267c16.266 0 29.453 13.186 29.453 29.453s-13.187 29.453-29.453 29.453M1243.683 451.773h-114.27c-16.265 0-29.45-13.186-29.45-29.453s13.185-29.453 29.45-29.453h114.27c16.264 0 29.449 13.186 29.449 29.453s-13.185 29.453-29.45 29.453M1316.303 210l-90.936-69.2c-12.944-9.84-15.452-28.32-5.603-41.267 9.85-12.946 28.327-15.453 41.27-5.6l90.94 69.187c12.946 9.853 15.453 28.333 5.6 41.28-9.854 12.947-28.327 15.453-41.271 5.6M2124.16 210l90.933-69.2c12.947-9.84 15.454-28.32 5.6-41.267-9.853-12.946-28.32-15.453-41.266-5.6l-90.934 69.187c-12.946 9.853-15.453 28.333-5.613 41.28 9.853 12.947 28.333 15.453 41.28 5.6M1316.303 671.16l-90.936 69.2c-12.944 9.853-15.452 28.32-5.603 41.267 9.85 12.946 28.327 15.453 41.27 5.6l90.94-69.187c12.946-9.853 15.453-28.333 5.6-41.28-9.854-12.933-28.327-15.453-41.271-5.6M2124.16 671.16l90.933 69.2c12.947 9.853 15.454 28.32 5.6 41.267-9.853 12.946-28.32 15.453-41.266 5.6l-90.934-69.187c-12.946-9.853-15.453-28.333-5.613-41.28 9.853-12.933 28.333-15.453 41.28-5.6" fill="#ff7542"/><path d="M1798.933 1878.053s-26.28-49.573-36.786-102.173c-9.134-44.933-8.707-98.6-7.587-127.267.253-6.52 8.813-8.746 12.213-3.173 16.547 27.04 46.454 81.387 53.174 130.48 4.8 33.88 7.906 67.973 9.28 102.173l-30.294-.04" fill="#1174ad"/><path d="M1826.427 1878.053s17.52-60.613 36.786-101.04c14.014-29.4 45.894-64.6 62.267-81.626 3.093-3.227 8.493-.454 7.667 3.946-4.2 22.414-13.92 66.6-29.8 96.774-22.067 41.933-58.84 81.946-58.84 81.946h-18.08M1736.32 1824.28c-2.507-4.907 2.187-10.373 7.413-8.6a104.873 104.873 0 0136.054 20.893c19.6 17.814 23.253 38.107 23.253 38.107l-6.747 2.267s-36.52-6.654-59.973-52.667" fill="#1174ad"/><path d="M1873.467 1682.56c-.454-6.28-8.507-8.56-12.174-3.453-13.68 19.04-36.64 56.56-44.16 102.546-9.4 57.387 1.547 96.44 1.547 96.44h7.747s28.52-54.053 39.64-90.666c10.493-34.547 9.146-80.44 7.4-104.867M1844.507 1878.053s16.4-54.64 72.533-75.44c3.253-1.213 6.413 2.08 5.093 5.294-7.4 18.053-28.493 61.173-64.12 70.133l-13.506.013" fill="#1174ad"/><path d="M1894.187 1868.813h-129.92l16.68 133.107h96.56l16.68-133.107" fill="#768fdb"/><path d="M1754.493 1972.893V1992h5.2a4.572 4.572 0 014.574 4.573v.774c0 2.52-2.04 4.573-4.574 4.573h-221.68a5.326 5.326 0 01-5.32-5.32v-27.52a5.318 5.318 0 015.32-5.32h221.68a4.564 4.564 0 014.574 4.573 4.56 4.56 0 01-4.574 4.56h-5.2" fill="#e62552"/><path d="M1755.147 1992h-193.88a3.887 3.887 0 01-3.894-3.88v-11.333a3.887 3.887 0 013.894-3.88h193.88V1992" fill="#fff"/><path d="M1513.093 1931.653v21.134h-5.2c-2.533 0-4.573 2.266-4.573 5.066v.854c0 2.786 2.04 5.053 4.573 5.053h221.68c2.934 0 5.32-2.64 5.32-5.893v-30.44c0-3.254-2.386-5.894-5.32-5.894h-221.68c-2.533 0-4.573 2.267-4.573 5.067 0 2.787 2.04 5.053 4.573 5.053h5.2" fill="#1174ad"/><path d="M1512.427 1952.787h193.693a4.08 4.08 0 004.08-4.08v-12.974a4.08 4.08 0 00-4.08-4.08h-193.693v21.134" fill="#fff"/><path d="M1731.613 1901.947h-202.146a8.075 8.075 0 01-8.08-8.08v-18.107c0-4.467 3.613-8.093 8.08-8.093h202.146a8.097 8.097 0 018.094 8.093v18.107c0 4.466-3.627 8.08-8.094 8.08" fill="#e62552"/><path d="M1747.867 1921.533H1541.76a6.106 6.106 0 01-6.107-6.106v-7.374a6.106 6.106 0 016.107-6.106h206.107a6.106 6.106 0 016.106 6.106v7.374a6.106 6.106 0 01-6.106 6.106" fill="#768fdb"/></svg>